<mxfile host="65bd71144e">
    <diagram id="qtoTA42Odo8XubX1bO34" name="第 1 页">
        <mxGraphModel dx="524" dy="498" grid="1" gridSize="10" guides="1" tooltips="1" connect="1" arrows="1" fold="1" page="1" pageScale="1" pageWidth="827" pageHeight="1169" math="0" shadow="0">
            <root>
                <mxCell id="0"/>
                <mxCell id="1" parent="0"/>
                <mxCell id="4" value="" style="ellipse;whiteSpace=wrap;html=1;aspect=fixed;strokeColor=none;fillColor=#2d323b;" vertex="1" parent="1">
                    <mxGeometry x="120" y="200" width="280" height="280" as="geometry"/>
                </mxCell>
                <mxCell id="5" value="" style="shape=image;verticalLabelPosition=bottom;labelBackgroundColor=default;verticalAlign=top;aspect=fixed;imageAspect=0;image=data:image/svg+xml,PHN2ZyB4bWxuczp4bGluaz0iaHR0cDovL3d3dy53My5vcmcvMTk5OS94bGluayIgeG1sbnM9Imh0dHA6Ly93d3cudzMub3JnLzIwMDAvc3ZnIiBoZWlnaHQ9IjIwMCIgd2lkdGg9IjIwMCIgdmVyc2lvbj0iMS4xIiB2aWV3Qm94PSIwIDAgMTAyNCAxMDI0IiBjbGFzcz0iaWNvbiI+CiAgICA8cGF0aCBmaWxsPSIjY2I4MWRhIiBkPSJNNTQwLjI0NTMzMyA2NDUuODg4TDQyNi40MTA2NjcgNTIyLjA2OTMzM2wxLjM2NTMzMy0xLjUzNmE4ODkuNzcwNjY3IDg4OS43NzA2NjcgMCAwIDAgMTY2LjMxNDY2Ny0zMjIuMDQ4aDEzMS40MTMzMzNWOTkuNjY5MzMzSDQxMS41NjI2NjdWMS4xMDkzMzNoLTg5LjZ2OTguNjQ1MzM0SDcuODUwNjY3djk4LjczMDY2Nmg1MDAuOTA2NjY2YTc5Ny42OTYgNzk3LjY5NiAwIDAgMS0xNDIuMTY1MzMzIDI2My45MzYgNzc4LjU4MTMzMyA3NzguNTgxMzMzIDAgMCAxLTEwMy41OTQ2NjctMTY1LjI5MDY2NmgtODkuNmMzMy42MjEzMzMgODIuMTc2IDc4LjY3NzMzMyAxNTguMDM3MzMzIDEzMy41NDY2NjcgMjI0LjkzODY2Nkw3OC44NDggNzY5LjcwNjY2N2w2My42NTg2NjcgNjkuOTczMzMzIDIyNC4xNzA2NjYtMjQ2LjYxMzMzMyAxMzkuNTIgMTUzLjQyOTMzMyAzNC4xMzMzMzQtMTAwLjYwOHogbTI1Mi41MDEzMzQtMjUwLjAyNjY2N0g3MDMuMDYxMzMzbC0yMDEuODEzMzMzIDU5MS44NzJoODkuNjg1MzMzbDUwLjI2MTMzNC0xNDcuOTY4aDIxMi45OTJsNTAuNjg4IDE0Ny45NjhoODkuNjg1MzMzTDc5Mi43NDY2NjcgMzk1Ljc3NnpNNjc1LjI0MjY2NyA3NDEuMDM0NjY3bDcyLjYxODY2Ni0yMTMuNjc0NjY3IDcyLjcwNCAyMTMuNjc0NjY3SDY3NS4yNDI2Njd6Ii8+Cjwvc3ZnPg==;" vertex="1" parent="1">
                    <mxGeometry x="160" y="240" width="200" height="200" as="geometry"/>
                </mxCell>
            </root>
        </mxGraphModel>
    </diagram>
</mxfile>